<?xml version="1.0" standalone="no"?>
<!DOCTYPE svg PUBLIC "-//W3C//DTD SVG 20010904//EN"
 "http://www.w3.org/TR/2001/REC-SVG-20010904/DTD/svg10.dtd">
<svg version="1.0" xmlns="http://www.w3.org/2000/svg"
 width="200.000000pt" height="188.000000pt" viewBox="0 0 200.000000 188.000000"
 preserveAspectRatio="xMidYMid meet">
<metadata>
Created by potrace 1.16, written by Peter Selinger 2001-2019
</metadata>
<g transform="translate(0.000000,188.000000) scale(0.100000,-0.100000)"
fill="#000000" stroke="none">
<path d="M725 1805 c-44 -7 -89 -14 -100 -16 -11 -1 -39 3 -62 11 -41 12 -43
12 -83 -20 -22 -18 -50 -50 -61 -72 -11 -22 -34 -47 -52 -56 -18 -9 -49 -35
-71 -57 -69 -73 -95 -120 -117 -214 l-21 -90 40 -84 c31 -64 53 -93 89 -123
26 -21 51 -43 55 -48 3 -5 23 -9 45 -8 36 1 222 27 271 38 17 3 25 -1 32 -21
8 -20 16 -25 45 -25 20 0 45 -4 55 -10 17 -9 17 -13 4 -62 -7 -29 -14 -56 -14
-60 0 -4 20 -30 45 -58 42 -47 55 -78 71 -163 4 -26 2 -44 -10 -61 -8 -14 -20
-44 -25 -68 -10 -40 -8 -47 29 -110 34 -56 40 -75 40 -122 0 -48 5 -62 41
-113 23 -33 38 -65 35 -75 -2 -11 6 -26 21 -38 21 -16 35 -18 91 -13 78 6 100
18 182 96 42 40 60 65 60 82 0 14 6 25 14 25 7 0 26 10 41 22 26 20 27 25 21
75 l-6 53 69 44 69 45 7 55 c6 45 3 68 -16 121 l-23 65 24 33 c54 74 115 138
144 153 46 23 135 152 142 208 8 58 -4 64 -84 37 -34 -12 -63 -21 -66 -21 -3
0 -44 44 -93 98 -57 64 -107 132 -141 195 -48 88 -53 102 -50 150 1 28 0 57
-4 63 -5 7 -34 9 -82 6 -61 -4 -87 0 -142 19 l-66 23 -26 -29 c-30 -35 -40
-35 -137 10 -66 30 -72 35 -68 58 3 14 0 34 -6 46 -14 24 -35 25 -156 6z"/>
<path d="M1756 554 c-10 -14 -37 -34 -60 -44 -45 -19 -56 -34 -56 -78 -1 -15
-7 -38 -15 -52 -30 -52 -11 -120 34 -120 17 0 51 29 51 43 0 4 19 46 43 95 24
48 46 102 50 119 12 62 -17 85 -47 37z"/>
</g>
</svg>
