<svg viewBox="0 0 200 200" xmlns="http://www.w3.org/2000/svg">
  <path fill="#24A148" d="M7.1,-10.5C9.1,-11.1,10.7,-9.1,12.7,-6.9C14.8,-4.7,17.3,-2.4,20.8,2C24.2,6.3,28.5,12.7,28.9,19C29.2,25.4,25.6,31.7,20.1,36.6C14.7,41.6,7.3,45,3.2,39.5C-0.9,33.9,-1.8,19.3,-10.6,16.3C-19.4,13.3,-36.1,21.9,-51.5,21.1C-66.9,20.3,-81.1,10.2,-83.1,-1.2C-85.1,-12.5,-75,-25,-63,-31.7C-51,-38.4,-37.1,-39.4,-26.3,-33.7C-15.5,-28.1,-7.8,-15.8,-2.6,-11.2C2.5,-6.7,5,-9.9,7.1,-10.5Z" transform="translate(100 100)" />
</svg>