<svg viewBox="0 0 200 200" xmlns="http://www.w3.org/2000/svg">
  <path fill="#24A148" d="M27.3,-45.6C36.6,-41.9,46.2,-37.1,57.8,-29.3C69.4,-21.5,83,-10.7,77.6,-3.1C72.1,4.4,47.6,8.9,37.3,19C27.1,29.1,31,44.8,27.2,51.4C23.3,58,11.7,55.4,3,50.2C-5.6,45,-11.3,37.1,-13.4,29.6C-15.6,22,-14.4,14.8,-14.1,9.9C-13.8,5.1,-14.4,2.5,-18.2,-2.2C-21.9,-6.9,-28.8,-13.8,-29.7,-19.5C-30.5,-25.2,-25.2,-29.8,-19.2,-35.4C-13.3,-40.9,-6.6,-47.4,1.2,-49.5C9,-51.5,18,-49.2,27.3,-45.6Z" transform="translate(100 100)" />
</svg>